<?xml version="1.0"?>
<svg xmlns="http://www.w3.org/2000/svg" viewBox="0 0 1600 900" preserveAspectRatio="xMidYMid slice">
  <defs>
    <linearGradient id="g" x1="0" y1="0" x2="1" y2="1">
      <stop offset="0%" stop-color="#d0d9c8"></stop>
      <stop offset="100%" stop-color="#8aa089"></stop>
    </linearGradient>
    <pattern id="dots" x="0" y="0" width="20" height="20" patternUnits="userSpaceOnUse">
      <circle cx="2" cy="2" r="1" fill="#1c3a2a" opacity="0.07"></circle>
    </pattern>
  </defs>

  <rect width="1600" height="900" fill="url(#g)"></rect>
  <rect width="1600" height="900" fill="url(#dots)"></rect>

  
      <path d="M1200 800 Q1180 600 1080 480 Q1180 540 1240 460 Q1260 580 1280 460 Q1340 540 1380 470 Q1320 590 1280 700 Z" fill="#1c3a2a" opacity="0.20"></path>
      <circle cx="1280" cy="400" r="14" fill="#1c3a2a" opacity="0.4"></circle>
      <line x1="1280" y1="420" x2="1280" y2="800" stroke="#1c3a2a" stroke-width="2" opacity="0.30"></line>
    

  
  <g opacity="0.05">
    <line x1="-100" y1="200" x2="1700" y2="-100" stroke="#1c3a2a" stroke-width="40"></line>
    <line x1="-100" y1="1100" x2="1700" y2="800" stroke="#1c3a2a" stroke-width="40"></line>
  </g>

  
  <g transform="translate(80, 760)">
    <rect x="-12" y="-30" width="520" height="80" rx="6" fill="#1c3a2a" opacity="0.85"></rect>
    <text x="0" y="-6" font-family="ui-monospace, &#39;SF Mono&#39;, Menlo, monospace" font-size="13" letter-spacing="2" fill="#ffffff" opacity="0.7">PLACEHOLDER · 1600 × 900</text>
    <text x="0" y="28" font-family="ui-monospace, &#39;SF Mono&#39;, Menlo, monospace" font-size="22" font-weight="600" letter-spacing="2" fill="#ffffff">AUSBILDUNG TA</text>
  </g>

  
  <text x="1520" y="80" text-anchor="end" font-family="ui-monospace, &#39;SF Mono&#39;, Menlo, monospace" font-size="12" letter-spacing="2" fill="#1c3a2a" opacity="0.5">Transaktionsanalyse fundiert lernen</text>
</svg>